<?xml version="1.0" encoding="utf-8"?>
<!-- Generator: Adobe Illustrator 17.0.0, SVG Export Plug-In . SVG Version: 6.00 Build 0)  -->
<!DOCTYPE svg PUBLIC "-//W3C//DTD SVG 1.1//EN" "http://www.w3.org/Graphics/SVG/1.1/DTD/svg11.dtd">
<svg version="1.1" id="Layer_1" xmlns="http://www.w3.org/2000/svg" xmlns:xlink="http://www.w3.org/1999/xlink" x="0px" y="0px"
	 width="210.341px" height="168.144px" viewBox="0 0 210.341 168.144" enable-background="new 0 0 210.341 168.144"
	 xml:space="preserve">
<g>

	<path clip-path="url(#SVGID_2_)" fill="#231F20" d="M126.979,107.741c0,0,43.449-3.015,59.616-48.234c0,0,1.01,13.867-0.506,17.485
		c0,0,8.589-4.219,12.63-10.852c0,0-2.02,13.867-5.052,16.278c0,0,7.577-2.41,11.114-6.028c0,0,0.001,10.852-3.031,13.866
		c0,0,5.052,1.81,8.589,0.604c0,0-25.767,35.572-63.153,30.146C109.801,115.579,126.979,107.741,126.979,107.741"/>
	<path display="none" clip-path="url(#SVGID_2_)" fill="#231F20" d="M-229.365,114.037c0,0,14.127,6.343,21.116,16.658
		c5.752,8.49,25.822,29.259,40.108,6.811c0,0,3.939-7.535,11.172-2.563c4.855,3.338-3.034,11.227-3.034,11.227
		s-13.14,20.239-34.592,12.138c-11.814-4.462-22.215-18.339-26.702-23.365c-7.586-8.496-18.272-13.763-18.272-13.763
		L-229.365,114.037z"/>
	<path clip-path="url(#SVGID_2_)" fill="#FAAF3C" d="M57.246,156.972c-0.312,3.053,1.91,5.782,4.962,6.094l0.215,0.022
		c3.052,0.313,5.782-1.909,6.093-4.963l2.015-19.681c0.313-3.054-1.909-5.782-4.963-6.094l-0.215-0.022
		c-3.052-0.313-5.781,1.909-6.093,4.962L57.246,156.972z"/>
	<path clip-path="url(#SVGID_2_)" fill="#FAAF3C" d="M83.963,158.91c0.555,3.019,3.45,5.017,6.469,4.463l0.212-0.038
		c3.019-0.554,5.016-3.449,4.464-6.47l-3.57-19.459c-0.554-3.02-3.451-5.018-6.469-4.464l-0.211,0.039
		c-3.02,0.554-5.018,3.45-4.464,6.468L83.963,158.91z"/>
	<path clip-path="url(#SVGID_2_)" fill="#F69221" d="M105.088,12.22C71.471-4.506,27.996,3.731,10.861,38.171
		c-17.135,34.441-1.443,82.045,32.174,98.771c33.616,16.726,70.815,0.103,91.894-32.077
		C155.578,73.343,138.704,28.946,105.088,12.22"/>
	<path clip-path="url(#SVGID_2_)" fill="none" stroke="#FAAF3C" stroke-width="7.722" stroke-miterlimit="10" d="M105.088,12.22
		C71.471-4.506,27.996,3.731,10.861,38.171c-17.135,34.441-1.443,82.045,32.174,98.771c33.616,16.726,70.815,0.103,91.894-32.077
		C155.578,73.343,138.704,28.946,105.088,12.22z"/>
	<path clip-path="url(#SVGID_2_)" fill="#B8529E" d="M55.167,158.041l14.195,1.24c0,0-1.24,9.222-8.002,8.553
		C54.598,167.165,55.167,158.041,55.167,158.041"/>
	<path clip-path="url(#SVGID_2_)" fill="#B8529E" d="M83.179,158.585l13.902-1.182c0,0,1.104,9.952-5.65,10.702
		C84.678,168.854,83.179,158.585,83.179,158.585"/>
	<path clip-path="url(#SVGID_2_)" fill="#F69221" d="M55.309,95.358c14.146,12.012,29.424,12.053,40.958,1.789"/>

		<path clip-path="url(#SVGID_2_)" fill="none" stroke="#FAAF3C" stroke-width="7.722" stroke-linecap="round" stroke-miterlimit="10" d="
		M55.309,95.358c14.146,12.012,29.424,12.053,40.958,1.789"/>
	<path clip-path="url(#SVGID_2_)" fill="#FAAF3C" d="M26.554,19.86c0,0,23.034,8.753,49.753,8.292c26.719-0.461,41-9.214,41-9.214
		S91.048,4.196,70.318,3.735C49.587,3.275,26.554,19.86,26.554,19.86"/>
	<path clip-path="url(#SVGID_2_)" fill="#FAAF3C" d="M111.318,14.792c0,0,10.199,41.422,31.163,53.898
		C142.48,68.69,151.545,39.745,111.318,14.792"/>
	<path clip-path="url(#SVGID_2_)" fill="#FAAF3C" d="M32.081,17.556c0,0-13.821,32.708-29.483,43.304
		C2.598,60.86,3.058,33.68,32.081,17.556"/>
	<path clip-path="url(#SVGID_2_)" fill="#F5927A" d="M44.637,88.048c0,4.409-3.573,7.983-7.983,7.983
		c-4.409,0-7.982-3.574-7.982-7.983c0-4.409,3.573-7.982,7.982-7.982C41.064,80.066,44.637,83.639,44.637,88.048"/>
	<path clip-path="url(#SVGID_2_)" fill="#F5927A" d="M118.373,86.681c0,4.409-3.573,7.982-7.983,7.982
		c-4.408,0-7.981-3.573-7.981-7.982c0-4.409,3.573-7.983,7.981-7.983C114.8,78.698,118.373,82.272,118.373,86.681"/>
	<path display="none" clip-path="url(#SVGID_2_)" fill="#6B308A" d="M-392.207,11.331l7.943,105.276c0,0,75.557,2.988,102.27,9.71
		c26.711,6.722,102.22-17.179,102.22-17.179l-4.482-106.064L-392.207,11.331z"/>
	<path display="none" clip-path="url(#SVGID_2_)" fill="#922A8D" d="M-284.193,156.021c0.303,4.442,4.149,7.797,8.589,7.495
		l0.312-0.021c4.44-0.303,7.795-4.149,7.493-8.59l-1.95-28.629c-0.303-4.441-4.15-7.797-8.59-7.493l-0.312,0.021
		c-4.44,0.303-7.796,4.147-7.493,8.589L-284.193,156.021z"/>
	<path display="none" clip-path="url(#SVGID_2_)" fill="#922A8D" d="M-256.571,154.515c0.805,4.379,5.004,7.278,9.382,6.474
		l0.307-0.056c4.379-0.804,7.277-5.004,6.475-9.383l-5.178-28.224c-0.803-4.378-5.004-7.277-9.383-6.472l-0.307,0.055
		c-4.379,0.803-7.276,5.003-6.473,9.381L-256.571,154.515z"/>
	<path display="none" clip-path="url(#SVGID_2_)" fill="#922A8D" d="M-280.068-70.734c-54.4-2.547-107.29,33.801-109.899,89.534
		c-2.608,55.733,46.052,109.744,100.451,112.291c54.399,2.546,94.055-41.266,103.221-96.302
		C-177.316-19.123-225.67-68.188-280.068-70.734"/>
	<path display="none" clip-path="url(#SVGID_2_)" fill="none" stroke="#67308F" stroke-width="7.469" stroke-miterlimit="10" d="
		M-280.068-70.734c-54.4-2.547-107.29,33.801-109.899,89.534c-2.608,55.733,46.052,109.744,100.451,112.291
		c54.399,2.546,94.055-41.266,103.221-96.302C-177.316-19.123-225.67-68.188-280.068-70.734z"/>
	<path display="none" clip-path="url(#SVGID_2_)" fill="#231F20" d="M-286.635,154.377l20.745-0.817c0,0,1.677,21.23-8.234,21.441
		C-284.035,175.215-286.635,154.377-286.635,154.377"/>
	<path display="none" clip-path="url(#SVGID_2_)" fill="#231F20" d="M-259.203,154.122l22.296-2.775c0,0,1.521,21.364-9.315,23.088
		C-257.057,176.16-259.203,154.122-259.203,154.122"/>
	<path display="none" clip-path="url(#SVGID_2_)" fill="#402312" d="M-314.198,4.909c0.329-2.801-2.882-6.243-5.83-6.588
		c-2.948-0.346-5.603,1.645-5.931,4.444c-0.329,2.8,1.702,6.258,4.65,6.603C-318.362,9.714-314.526,7.708-314.198,4.909"/>
	<path display="none" clip-path="url(#SVGID_2_)" fill="#402312" d="M-236.765,9.39c0.33-2.8-2.027-6.697-4.975-7.042
		c-2.947-0.346-6.839,2.543-7.168,5.343c-0.328,2.8,2.326,6.306,5.273,6.652C-240.687,14.689-237.093,12.19-236.765,9.39"/>
	<path display="none" clip-path="url(#SVGID_2_)" fill="#922A8D" d="M-332.475,67.8c27.963,23.315,57.936,23.13,80.385,2.792"/>

		<path display="none" clip-path="url(#SVGID_2_)" fill="none" stroke="#67308F" stroke-width="7.469" stroke-linecap="round" stroke-miterlimit="10" d="
		M-332.475,67.8c27.963,23.315,57.936,23.13,80.385,2.792"/>
	<path display="none" clip-path="url(#SVGID_2_)" fill="#6B308A" d="M-389.661,4.567c0,0,43.321-31.371,103.822-23.154
		c60.503,8.216,100.837,38.093,100.837,38.093s-3.398-87.114-95.066-90.24C-371.735-73.86-389.661,4.567-389.661,4.567"/>
	<polygon display="none" clip-path="url(#SVGID_2_)" fill="#922A8D" points="-280.61,-14.106 -282.85,-56.681 -270.152,-11.866 	"/>
	<path display="none" clip-path="url(#SVGID_2_)" fill-rule="evenodd" clip-rule="evenodd" fill="#231F20" d="M-182.474,1.452
		c0.14,3.858-0.921,7.283-5.458,8.95c-1.365,0.501-2.596,1.915-3.426,3.208c-1.822,2.837-3.29,5.899-5.008,8.806
		c-3.348,5.659-7.561,10.519-13.311,13.881c-2.442,1.429-4.8,3.112-7.412,4.121c-3.49,1.35-7.132,2.628-10.813,3.08
		c-4.792,0.587-9.7,1.014-14.505-0.492c-2.625-0.822-5.403-1.193-7.982-2.128c-3.838-1.393-7.616-2.972-10.751-5.761
		c-2.416-2.149-4.889-4.244-7.457-6.207c-3.21-2.453-4.546-5.781-5.146-9.62c-0.272-1.747-0.876-3.457-1.463-5.137
		c-1.355-3.886-1.393-8.366-4.684-11.389c-1.148-1.054-2.688-2.056-4.172-2.281c-2.306-0.349-4.734-0.183-7.075,0.081
		c-2.281,0.257-4.196,1.468-5.185,3.625c-1.848,4.033-3.825,8.038-5.262,12.22c-1.524,4.437-3.829,8.28-7.584,10.946
		c-6.183,4.391-12.973,7.748-20.507,9.012c-3.981,0.668-8.153,0.895-12.163,0.516c-4.995-0.47-9.998-1.461-14.448-4.129
		c-2.311-1.384-4.848-2.458-6.962-4.088c-2.975-2.293-5.947-4.718-8.385-7.549c-3.353-3.892-5.896-8.363-7.741-13.24
		c-1.607-4.244-3.164-8.599-6.969-11.577c-1.749-1.368-2.724-3.106-2.053-5.433c0.052-0.181-0.021-0.396-0.03-0.596
		c-0.222-5.422-0.198-5.32,4.985-6.532c2.928-0.685,5.78-1.722,8.635-2.692c3.257-1.107,6.416-2.569,9.737-3.404
		c2.981-0.752,6.116-0.943,9.196-1.23c2.236-0.209,4.508-0.352,6.742-0.209c5.686,0.366,11.475,0.365,17.009,1.525
		c6.381,1.339,12.665,3.437,18.738,5.844c3.692,1.464,6.933,4.089,10.314,6.29c1.186,0.772,2.095,1.975,3.291,2.724
		c0.973,0.609,2.164,1.09,3.297,1.187c6.009,0.516,12.032,0.873,18.049,1.326c1.992,0.15,3.745,0.13,5.535-1.279
		c4.925-3.876,10.758-6.208,16.727-7.641c6.266-1.504,12.763-2.211,19.201-2.772c4.061-0.355,8.268-0.221,12.289,0.434
		c6.598,1.075,13.194,2.418,19.604,4.29c4.213,1.229,8.09,3.602,12.13,5.435c3.095,1.404,6.195,2.799,9.323,4.126
		C-182.528-1.842-182.487-1.939-182.474,1.452 M-232.369,41.802c3.006-0.575,7.133-0.98,11.002-2.2
		c5.31-1.672,9.97-4.687,13.923-8.677c4.59-4.632,8.618-9.627,10.147-16.18c0.525-2.252,1.051-4.505,1.516-6.77
		c0.696-3.393-0.105-6.466-1.856-9.431c-1.993-3.378-5.316-4.959-8.609-6.399c-5.198-2.274-10.6-3.974-16.248-4.929
		c-4.998-0.846-10.002-1.127-15.013-0.783c-3.735,0.256-7.428,1.084-11.148,1.588c-5.315,0.721-10.342,2.489-14.911,5.118
		c-5.649,3.25-8.259,8.696-8.562,15.098c-0.187,3.968,0.429,7.983,2.108,11.579c2.644,5.671,6.577,10.428,11.791,13.983
		c3.013,2.055,6.232,3.668,9.677,5.021C-243.633,40.753-238.588,41.296-232.369,41.802 M-302.557,2.979
		c-1.172-5.772-3.109-10.287-7.474-13.193c-6.889-4.587-14.603-7.521-22.626-9.136c-5.532-1.112-11.331-0.971-17.018-1.205
		c-2.278-0.094-4.573,0.366-6.865,0.477c-5.426,0.264-10.506,1.787-15.07,4.64c-4.288,2.681-5.755,7.155-5.578,11.873
		c0.144,3.859,0.823,7.828,2.04,11.49c2.027,6.097,5.515,11.528,10.113,16.009c4.714,4.594,10.393,7.984,16.805,9.532
		c7.231,1.745,14.603,1.942,21.746-0.744c2.962-1.115,5.918-2.316,8.712-3.789c7.033-3.707,12.016-9.268,13.999-17.079
		C-302.989,8.768-302.885,5.507-302.557,2.979"/>
	<path display="none" clip-path="url(#SVGID_2_)" fill="#231F20" d="M-364.206-44.327c0,0-11.196-48.747-4.237-50.531
		c6.959-1.785,48.947,24.672,51.628,28.933C-314.136-61.664-353.686-35.779-364.206-44.327"/>
</g>
<g>


		<line display="none" clip-path="url(#SVGID_4_)" fill="none" stroke="#231F20" stroke-width="2" stroke-miterlimit="10" x1="-341.335" y1="51.513" x2="-386.233" y2="42.329"/>

		<line display="none" clip-path="url(#SVGID_4_)" fill="none" stroke="#231F20" stroke-width="2" stroke-miterlimit="10" x1="-342.355" y1="60.696" x2="-404.6" y2="59.675"/>

		<line display="none" clip-path="url(#SVGID_4_)" fill="none" stroke="#231F20" stroke-width="2" stroke-miterlimit="10" x1="-345.417" y1="69.88" x2="-388.274" y2="79.064"/>

		<line display="none" clip-path="url(#SVGID_4_)" fill="none" stroke="#231F20" stroke-width="2" stroke-miterlimit="10" x1="-233.172" y1="58.655" x2="-157.662" y2="48.451"/>

		<line display="none" clip-path="url(#SVGID_4_)" fill="none" stroke="#231F20" stroke-width="2" stroke-miterlimit="10" x1="-223.988" y1="65.799" x2="-165.825" y2="67.84"/>

		<line display="none" clip-path="url(#SVGID_4_)" fill="none" stroke="#231F20" stroke-width="2" stroke-miterlimit="10" x1="-230.111" y1="74.982" x2="-162.764" y2="87.227"/>
	<path clip-path="url(#SVGID_4_)" fill="#231F20" d="M6.011,48.589c0,0,104.076,5.557,132.368-6.063c0,0,8.589,13.137,8.589,26.777
		c0,0-59.616,12.63-64.163,7.073c-4.547-5.558-8.59-4.042-11.115-0.506c-2.526,3.537-69.215,1.01-69.215,1.01
		S-1.062,59.704,6.011,48.589"/>
	<path clip-path="url(#SVGID_4_)" fill="#3B68B1" d="M64.149,66.37c0.227-1.931-1.987-4.304-4.019-4.542
		c-2.033-0.238-3.863,1.134-4.09,3.064c-0.227,1.931,1.174,4.314,3.206,4.553C61.278,69.683,63.923,68.3,64.149,66.37"/>
	<path clip-path="url(#SVGID_4_)" fill="#3B68B1" d="M100.028,67.915c0.227-1.931-1.398-4.618-3.431-4.855
		c-2.031-0.239-4.716,1.753-4.942,3.683c-0.227,1.93,1.604,4.348,3.635,4.586C97.324,71.568,99.802,69.845,100.028,67.915"/>
	<path clip-path="url(#SVGID_4_)" fill="#231F20" d="M28.185,129.93l46.794,6.82l47.316-10.862l12.548-12.125l-59.864,17.935
		l-60.127-15.661C14.853,116.037,19.82,123.867,28.185,129.93"/>
	<path clip-path="url(#SVGID_4_)" fill="#FFF100" d="M81.491,132.961c0,3.348-2.804,6.063-6.265,6.063
		c-3.46,0-6.264-2.714-6.264-6.063c0-3.348,2.804-6.063,6.264-6.063C78.687,126.898,81.491,129.612,81.491,132.961"/>

		<ellipse clip-path="url(#SVGID_4_)" fill="none" stroke="#231F20" stroke-width="2" stroke-miterlimit="10" cx="75.226" cy="132.961" rx="6.265" ry="6.063"/>
</g>
</svg>
