<svg id="fuck" width="216px" height="172px" viewBox="0 0 216 172" version="1.1" xmlns="http://www.w3.org/2000/svg" xmlns:xlink="http://www.w3.org/1999/xlink" xmlns:sketch="http://www.bohemiancoding.com/sketch/ns">
    <g id="Page-1" stroke="none" stroke-width="1" fill="none" fill-rule="evenodd" sketch:type="MSPage">
        <g id="fuck" sketch:type="MSLayerGroup" transform="translate(4.000000, 4.000000)">
            <path d="M124.979,103.741 C124.979,103.741 168.428,100.726 184.595,55.507 C184.595,55.507 185.605,69.374 184.089,72.992 C184.089,72.992 192.678,68.773 196.719,62.14 C196.719,62.14 194.699,76.007 191.667,78.418 C191.667,78.418 199.244,76.008 202.781,72.39 C202.781,72.39 202.782,83.242 199.75,86.256 C199.75,86.256 204.802,88.066 208.339,86.86 C208.339,86.86 182.572,122.432 145.186,117.006 C107.801,111.579 124.979,103.741 124.979,103.741" id="Shape" fill="#231F20" sketch:type="MSShapeGroup"></path>
            <path d="M55.246,152.972 C54.934,156.025 57.156,158.754 60.208,159.066 L60.423,159.088 C63.475,159.401 66.205,157.179 66.516,154.125 L68.531,134.444 C68.844,131.39 66.622,128.662 63.568,128.35 L63.353,128.328 C60.301,128.015 57.572,130.237 57.26,133.29 L55.246,152.972 L55.246,152.972 Z" id="Shape" fill="#FAAF3C" sketch:type="MSShapeGroup"></path>
            <path d="M81.963,154.91 C82.518,157.929 85.413,159.927 88.432,159.373 L88.644,159.335 C91.663,158.781 93.66,155.886 93.108,152.865 L89.538,133.406 C88.984,130.386 86.087,128.388 83.069,128.942 L82.858,128.981 C79.838,129.535 77.84,132.431 78.394,135.449 L81.963,154.91 L81.963,154.91 Z" id="Shape" fill="#FAAF3C" sketch:type="MSShapeGroup"></path>
            <path d="M103.088,8.22 C69.471,-8.506 25.996,-0.269 8.861,34.171 C-8.274,68.612 7.418,116.216 41.035,132.942 C74.651,149.668 111.85,133.045 132.929,100.865 C153.578,69.343 136.704,24.946 103.088,8.22" id="Shape" fill="#F69221" sketch:type="MSShapeGroup"></path>
            <path d="M103.088,8.22 C69.471,-8.506 25.996,-0.269 8.861,34.171 C-8.274,68.612 7.418,116.216 41.035,132.942 C74.651,149.668 111.85,133.045 132.929,100.865 C153.578,69.343 136.704,24.946 103.088,8.22 L103.088,8.22 Z" id="Shape" stroke="#FAAF3C" stroke-width="7.722" sketch:type="MSShapeGroup"></path>
            <path d="M53.167,154.041 L67.362,155.281 C67.362,155.281 66.122,164.503 59.36,163.834 C52.598,163.165 53.167,154.041 53.167,154.041" id="Shape" fill="#B8529E" sketch:type="MSShapeGroup"></path>
            <path d="M81.179,154.585 L95.081,153.403 C95.081,153.403 96.185,163.355 89.431,164.105 C82.678,164.854 81.179,154.585 81.179,154.585" id="Shape" fill="#B8529E" sketch:type="MSShapeGroup"></path>
            <path d="M53.309,91.358 C67.455,103.37 82.733,103.411 94.267,93.147" id="Shape" stroke="#FAAF3C" stroke-width="7.722" sketch:type="MSShapeGroup"></path>
            <path d="M24.554,15.86 C24.554,15.86 47.588,24.613 74.307,24.152 C101.026,23.691 115.307,14.938 115.307,14.938 C115.307,14.938 89.048,0.196 68.318,-0.265 C47.587,-0.725 24.554,15.86 24.554,15.86" id="Shape" fill="#FAAF3C" sketch:type="MSShapeGroup"></path>
            <path d="M109.318,10.792 C109.318,10.792 119.517,52.214 140.481,64.69 C140.48,64.69 149.545,35.745 109.318,10.792" id="Shape" fill="#FAAF3C" sketch:type="MSShapeGroup"></path>
            <path d="M30.081,13.556 C30.081,13.556 16.26,46.264 0.598,56.86 C0.598,56.86 1.058,29.68 30.081,13.556" id="Shape" fill="#FAAF3C" sketch:type="MSShapeGroup"></path>
            <path d="M42.637,84.048 C42.637,88.457 39.064,92.031 34.654,92.031 C30.245,92.031 26.672,88.457 26.672,84.048 C26.672,79.639 30.245,76.066 34.654,76.066 C39.064,76.066 42.637,79.639 42.637,84.048" id="Shape" fill="#F5927A" sketch:type="MSShapeGroup"></path>
            <path d="M116.373,82.681 C116.373,87.09 112.8,90.663 108.39,90.663 C103.982,90.663 100.409,87.09 100.409,82.681 C100.409,78.272 103.982,74.698 108.39,74.698 C112.8,74.698 116.373,78.272 116.373,82.681" id="Shape" fill="#F5927A" sketch:type="MSShapeGroup"></path>
            <path d="M4.011,44.589 C4.011,44.589 108.087,50.146 136.379,38.526 C136.379,38.526 144.968,51.663 144.968,65.303 C144.968,65.303 85.352,77.933 80.805,72.376 C76.258,66.818 72.215,68.334 69.69,71.87 C67.164,75.407 0.475,72.88 0.475,72.88 C0.475,72.88 -3.062,55.704 4.011,44.589" id="Shape" fill="#231F20" sketch:type="MSShapeGroup"></path>
            <path d="M62.149,62.37 C62.376,60.439 60.162,58.066 58.13,57.828 C56.097,57.59 54.267,58.962 54.04,60.892 C53.813,62.823 55.214,65.206 57.246,65.445 C59.278,65.683 61.923,64.3 62.149,62.37" id="Shape" fill="#3B68B1" sketch:type="MSShapeGroup"></path>
            <path d="M98.028,63.915 C98.255,61.984 96.63,59.297 94.597,59.06 C92.566,58.821 89.881,60.813 89.655,62.743 C89.428,64.673 91.259,67.091 93.29,67.329 C95.324,67.568 97.802,65.845 98.028,63.915" id="Shape" fill="#3B68B1" sketch:type="MSShapeGroup"></path>
            <path d="M26.185,125.93 L72.979,132.75 L120.295,121.888 L132.843,109.763 L72.979,127.698 L12.852,112.037 C12.853,112.037 17.82,119.867 26.185,125.93" id="Shape" fill="#231F20" sketch:type="MSShapeGroup"></path>
            <path d="M79.491,128.961 C79.491,132.309 76.687,135.024 73.226,135.024 C69.766,135.024 66.962,132.31 66.962,128.961 C66.962,125.613 69.766,122.898 73.226,122.898 C76.687,122.898 79.491,125.612 79.491,128.961" id="Shape" fill="#FFF100" sketch:type="MSShapeGroup"></path>
            <ellipse id="Oval" stroke="#231F20" stroke-width="2" sketch:type="MSShapeGroup" cx="73.265" cy="129.063" rx="6.265" ry="6.063"></ellipse>
        </g>
    </g>
</svg>
