<svg id="fuck" version="1.1" id="Layer_1" xmlns="http://www.w3.org/2000/svg" xmlns:xlink="http://www.w3.org/1999/xlink" x="0px" y="0px"
	width="230.384px" height="258.874px" viewBox="0 0 230.384 258.874" enable-background="new 0 0 230.384 258.874"
	xml:space="preserve">
<g>
	<path fill="#FBB03B" d="M140.027,504.995c-0.475,4.655,2.912,8.816,7.566,9.291l0.327,0.034c4.654,0.476,8.815-2.911,9.29-7.567
		l3.071-30.007c0.477-4.656-2.912-8.815-7.566-9.291l-0.327-0.034c-4.654-0.477-8.814,2.91-9.291,7.566L140.027,504.995z"/>
	<path fill="#FBB03B" d="M180.76,507.95c0.846,4.604,5.26,7.65,9.862,6.805l0.323-0.058c4.603-0.845,7.649-5.26,6.806-9.864
		l-5.443-29.669c-0.844-4.603-5.261-7.648-9.863-6.804l-0.322,0.058c-4.603,0.844-7.649,5.259-6.805,9.862L180.76,507.95z"/>
	<path fill="#F7931E" stroke="#FBB03B" stroke-width="16.8128" stroke-miterlimit="10" d="M212.967,284.306
		c-51.254-25.5-117.534-12.944-143.66,39.565c-26.124,52.509-2.2,125.087,49.053,150.587c51.251,25.5,107.965,0.156,140.102-48.904
		C289.945,377.495,264.219,309.806,212.967,284.306z"/>
	<path fill="#FF00FF" d="M136.858,506.626l21.642,1.89c0,0-1.891,14.06-12.2,13.039C135.99,520.537,136.858,506.626,136.858,506.626
		z"/>
	<path fill="#FF00FF" d="M179.564,507.456l21.196-1.803c0,0,1.683,15.173-8.614,16.317
		C181.85,523.112,179.564,507.456,179.564,507.456z"/>
	<path fill="#0065E3" d="M149.234,364.033c0.345-2.944-3.03-6.562-6.128-6.925c-3.098-0.363-5.89,1.729-6.235,4.672
		s1.79,6.577,4.888,6.941C144.857,369.085,148.889,366.976,149.234,364.033z"/>
	<path fill="#0065E3" d="M203.936,366.389c0.346-2.944-2.131-7.04-5.23-7.402c-3.098-0.364-7.189,2.673-7.534,5.616
		c-0.346,2.943,2.445,6.629,5.543,6.992C199.813,371.959,203.591,369.332,203.936,366.389z"/>
	<path fill="#F7931E" stroke="#FBB03B" stroke-width="16.8128" stroke-linecap="round" stroke-miterlimit="10" d="M137.073,411.059
		c21.567,18.313,44.86,18.375,62.445,2.727"/>
	<path fill="#FBB03B" d="M93.232,295.952c0,0,35.118,13.345,75.855,12.642c40.736-0.703,62.509-14.047,62.509-14.047
		s-40.033-22.475-71.64-23.178C128.35,270.668,93.232,295.952,93.232,295.952z"/>
	<path fill="#FBB03B" d="M222.465,288.226c0,0,15.549,63.153,47.511,82.175C269.976,370.401,283.797,326.271,222.465,288.226z"/>
	<path fill="#FBB03B" d="M101.661,292.441c0,0-21.07,49.866-44.95,66.021C56.71,358.461,57.412,317.023,101.661,292.441z"/>
	<circle fill="#F79379" cx="112.7" cy="390.762" r="12.17"/>
	<circle fill="#F79379" cx="221.052" cy="397.829" r="12.17"/>
</g>
<circle id="Ball_3_" fill="#FFFFFF" stroke="#231F20" cx="261.484" cy="211.398" r="31.494"/>
<path id="Shade_2_5_" opacity="0.15" fill="#231F20" d="M271.433,239.83c-11.329,0-20.512-12.952-20.512-28.929
	s9.183-28.929,20.512-28.929c0.502,0,1,0.056,1.495,0.107c-3.552-1.387-7.401-2.176-11.443-2.176
	c-17.394,0-31.495,14.101-31.495,31.495c0,17.393,14.101,31.494,31.495,31.494c5.752,0,11.129-1.568,15.769-4.262
	C275.408,239.401,273.456,239.83,271.433,239.83z"/>
<path id="Shade_1_5_" opacity="0.1" fill="#231F20" d="M236.84,202.075c0-4.442,0.768-8.691,2.113-12.659
	c-5.538,5.675-8.963,13.424-8.963,21.981c0,17.393,14.101,31.494,31.495,31.494c4.319,0,8.427-0.885,12.172-2.466
	C253.295,240.242,236.84,223.15,236.84,202.075z"/>
<path id="White_Area_3_" fill="#FFFFFF" stroke="#231F20" d="M80.938,251.064c0,0-16.447,4.685-16.447,15.703
	c0,11.022,0,24.19,0,24.19s-7.959,7.347-7.041,20.51c0.918,13.163,19.35,28.776,114.982,30.919
	c95.632,2.143,99.613-29.388,99.613-29.388s-12.552-24.495-9.185-38.883c3.367-14.388-7.909-22.022-10.408-23.051
	c-2.499-1.03-10.733-1.021-10.733-1.021L80.938,251.064z"/>
<path id="Shade_2_8_" opacity="0.1" fill="#231F20" d="M262.86,274.115c0.861-3.673,0.757-6.903,0.096-9.7
	c-12.871,33.066-57.208,57.451-109.942,57.451c-36.411,0-68.8-11.638-89.616-29.718c-2.144,2.564-6.652,9.222-5.948,19.319
	c0.918,13.163,19.35,28.776,114.982,30.919c95.632,2.143,99.613-29.388,99.613-29.388S259.493,288.503,262.86,274.115z"/>
<path id="Shade_1_8_" opacity="0.1" fill="#231F20" d="M262.86,274.115c3.367-14.388-7.909-22.022-10.408-23.051
	c-2.18-0.898-8.717-1.007-10.356-1.019c2.205,5.209,3.398,10.649,3.398,16.252c0,37.498-52.375,67.895-116.981,67.895
	c-23.95,0-46.208-4.185-64.752-11.351c11.17,9.528,40.037,18.004,108.671,19.544c95.632,2.143,99.613-29.388,99.613-29.388
	S259.493,288.503,262.86,274.115z"/>
<path id="Red_Area_3_" fill="#CC4040" stroke="#231F20" d="M80.938,251.064c0,0,11.141-10.482,15.22-32.229
	c2.448-13.049-4.625-40.434,49.253-67.373c0,0,5.714-43.265,66.938-31.837c0,0,34.286,6.531,45.715,26.123
	c0,0,13.877,26.939,6.53,35.918c-6.235,2.449-14.56,11.377-22.858,8.979c-8.298-2.398-13.877-17.143-13.877-17.143
	s9.285,20.103,9.285,31.429c0,11.327-2.346,27.142-6.02,32.245c-3.673,5.102,11.836,10.817,16.326,19.592
	c0.817,2.04,2.676,24.492-74.581,28.572c-78.002,4.123-89.783-13.034-92.768-17.35C76.161,262.298,80.938,251.064,80.938,251.064z"
	/>
<path id="Orange_Shade_Center_1_" opacity="0.1" fill="#F05A28" d="M215.846,240.104c0,0,5.864-7.946,7.296-11.02
	c8.838-18.98,9.584-36.791-4.133-49.208c-5.667-5.129-14.19-12.62-25.102-15.384c-15.505-3.927-33.351-2.009-33.351-2.009
	c-6.572-0.236-36.369-3.935-48.206,19.869s6.938,37.273,6.53,49.927c-0.408,12.654-28.571,15.511-28.571,26.53
	c0,11.02,26.531,19.185,50.204,19.185c4.669,0,9.057-0.139,13.149-0.416c1.223,0.263,2.459,0.416,3.701,0.416
	c16.85,0,70.363-8.657,71.517-15.918C230.54,251.635,215.846,240.104,215.846,240.104z"/>
<path id="Orange_Shade_Right_Top_1_" opacity="0.1" fill="#F05A28" d="M230.309,171.054c0,0,8.77,6.29,18.788,9.307
	c10.021,3.016,14.766-1.73,14.766-1.73s-14.271,14.603-21.876,8.634C234.385,181.296,230.309,171.054,230.309,171.054z"/>
<path id="Orange_Shade_Left_Bottom_1_" opacity="0.2" fill="#BE1E2D" d="M215.208,264.415c-54.834,0-99.746-33.072-110.075-78.393
	c-8.491,14.163-6.478,25.901-7.884,33.4c-4.079,21.747-15.307,32.354-15.307,32.354s-4.617,10.147-0.674,15.843
	c3.214,4.646,16.019,20.359,91.712,16.594c60.64-3.014,71.551-17.355,73.287-24.356
	C236.068,262.501,226.386,264.415,215.208,264.415z"/>
<path id="Orange_Shade_Top_1_" opacity="0.1" fill="#F05A28" d="M261.866,162.141c0,0-4.229-10.563-14.495-18.772
	c-12.019-9.609-31.061-16.82-42.444-12.551c-19.592,7.347-31.142,26.749-31.142,26.749c14.305-1.341,31.448,2.333,46.25,13.487
	C220.035,171.054,225.131,139.695,261.866,162.141z"/>
<path id="Red_Shade_Right_1_" opacity="0.25" fill="#BE1E2D" d="M231.178,184.849c-2.068-5.84-4.362-10.867-4.362-10.867
	c13.36,52.173-10.663,63.163-9.235,65.817s11.02,7.755,15.103,17.347c4.082,9.593-11.665,19.878-14.286,20.677
	c-0.973,0.297,21.582-4.348,27.169-15.906c0.804-1.662,1.053-3.772,0.88-4.362c-0.09-0.306-1.398-2.452-2.181-3.253
	c-1.395-1.425-3.023-3.214-5.548-5.166c-4.385-3.389-9.299-6.952-9.299-10.025c0-2.679,1.555-3.541,1.99-4.745
	c4.228-11.694,5.051-28.623,3.98-34.592C234.79,196.449,233.104,190.293,231.178,184.849z"/>
<path id="Red_Shade_Left_1_" opacity="0.25" fill="#BE1E2D" d="M250.326,138.404c-0.245-0.362-4.799-4.678-12.949-8.734
	c-10.045-5.245-25.352-10.71-43.546-10.753c-16.642-0.16-27.804,4.766-35.013,11.212c-8.649,7.731-11.657,17.55-12.245,22.079
	c0,0-13.546,6.582-23.495,14.35c-6.824,5.327-15.191,12.704-20.396,24.222c-1.783,3.947-3.09,8.246-3.865,13.355
	c-0.554,3.644-0.45,7.687-1.11,12.437c-1.378,9.911-4.453,16.606-6.122,20.549c-3.482,8.227-9.643,14.656-9.643,14.656
	s-3.719,8.141-1.684,13.814c2.334,6.507,13.01,12.745,29.656,15.921c1.215,0.229-19.439-7.232-21.926-18.753
	c-2.487-11.518,26.564-32.82,32.755-43.776c4.286-7.584,4.016-19.518,7.135-29.565c6.028-19.415,40.024-35.129,40.024-35.129
	s1.176-17.465,22.33-26.531C220.233,114.899,250.877,139.217,250.326,138.404z"/>
<path id="Red_Shade_Left_Center_1_" opacity="0.15" fill="#BE1E2D" d="M191.38,127.283c0,0-8.188,2.616-15.043,9.889
	c-2.322,2.474-5.16,6.235-7.028,11.442c-0.819,2.551-0.867,3.015-1.406,5.673c0,0-19.532,9.209-31.801,21.852
	c-2.866,2.955-4.73,5.576-6.149,8.487c-5.368,11.013-4.618,23.756-7.564,30.835c-0.506,1.215-1.645,3.52-1.645,3.52
	s-4.182,6.023-11.25,13.087c-9.282,9.276-22.124,21.035-21.632,29.017c0.395,6.418,4.527,8.854,6.738,11.327
	c6.284,5.348,15.315,9.098,15.315,9.098s14.197,2.832,33.51,3.291c20.096,0.478,41.146-1.378,41.146-1.378
	c-36.247-26.516-39.134-54.695-39.134-54.695s-6.661-20.837-2.013-36.686c11.02-31.048,27.912-34.476,27.912-34.476
	s3.08-17.412,25.427-27.361c22.952-10.218,58.062,12.959,58.062,12.959S225.454,114.797,191.38,127.283"/>
</svg>
