<svg xmlns="http://www.w3.org/2000/svg" width="210.341" height="168.144" viewBox="0 0 210.341 168.144"><path clip-path="url(#SVGID_2_)" fill="#231F20" d="M126.98 107.74s43.448-3.014 59.615-48.233c0 0 1.01 13.867-.506 17.485 0 0 8.588-4.22 12.63-10.852 0 0-2.02 13.867-5.053 16.278 0 0 7.577-2.41 11.114-6.028 0 0 .002 10.852-3.03 13.866 0 0 5.052 1.81 8.59.604 0 0-25.768 35.572-63.154 30.146-37.385-5.427-20.207-13.265-20.207-13.265"/><path clip-path="url(#SVGID_2_)" fill="#FAAF3C" d="M57.246 156.972c-.312 3.053 1.91 5.782 4.962 6.094l.215.022c3.052.313 5.782-1.91 6.093-4.963l2.015-19.68c.314-3.055-1.908-5.783-4.962-6.095l-.215-.022c-3.052-.313-5.78 1.91-6.093 4.962l-2.014 19.682zM83.963 158.91c.555 3.02 3.45 5.017 6.47 4.463l.21-.038c3.02-.554 5.017-3.45 4.465-6.47l-3.57-19.46c-.554-3.02-3.45-5.017-6.47-4.463l-.21.04c-3.02.553-5.018 3.45-4.464 6.467l3.57 19.46z"/><path clip-path="url(#SVGID_2_)" fill="#F69221" d="M105.088 12.22C71.47-4.506 27.996 3.73 10.86 38.17c-17.134 34.442-1.442 82.046 32.175 98.772 33.616 16.726 70.815.103 91.894-32.077 20.648-31.522 3.774-75.92-29.842-92.645"/><path clip-path="url(#SVGID_2_)" stroke="#FAAF3C" stroke-width="7.722" stroke-miterlimit="10" d="M105.088 12.22C71.47-4.506 27.996 3.73 10.86 38.17c-17.134 34.442-1.442 82.046 32.175 98.772 33.616 16.726 70.815.103 91.894-32.077 20.648-31.522 3.774-75.92-29.842-92.645z" fill="none"/><path clip-path="url(#SVGID_2_)" fill="#B8529E" d="M55.167 158.04l14.195 1.24s-1.24 9.223-8.002 8.554c-6.762-.67-6.193-9.793-6.193-9.793M83.18 158.585l13.9-1.182s1.105 9.952-5.65 10.702c-6.752.75-8.25-9.52-8.25-9.52"/><path clip-path="url(#SVGID_2_)" fill="#F69221" d="M55.31 95.358c14.145 12.012 29.423 12.053 40.957 1.79"/><path clip-path="url(#SVGID_2_)" stroke="#FAAF3C" stroke-width="7.722" stroke-linecap="round" stroke-miterlimit="10" d="M55.31 95.358c14.145 12.012 29.423 12.053 40.957 1.79" fill="none"/><path clip-path="url(#SVGID_2_)" fill="#FAAF3C" d="M26.554 19.86s23.034 8.753 49.753 8.292c26.72-.46 41-9.214 41-9.214S91.047 4.196 70.317 3.735c-20.73-.46-43.763 16.125-43.763 16.125M111.318 14.792s10.2 41.422 31.163 53.898c0 0 9.065-28.945-31.162-53.898M32.08 17.556S18.26 50.264 2.6 60.86c0 0 .46-27.18 29.483-43.304"/><path clip-path="url(#SVGID_2_)" fill="#F5927A" d="M44.637 88.048c0 4.41-3.573 7.983-7.983 7.983s-7.982-3.573-7.982-7.982c0-4.41 3.573-7.982 7.982-7.982 4.41 0 7.983 3.573 7.983 7.982M118.373 86.68c0 4.41-3.573 7.983-7.983 7.983-4.408 0-7.98-3.573-7.98-7.982 0-4.408 3.572-7.982 7.98-7.982 4.41 0 7.983 3.574 7.983 7.983"/><path clip-path="url(#SVGID_4_)" fill="#231F20" d="M6.01 48.59s104.077 5.556 132.37-6.064c0 0 8.588 13.137 8.588 26.777 0 0-59.616 12.63-64.163 7.073-4.547-5.558-8.59-4.042-11.115-.506-2.526 3.537-69.215 1.01-69.215 1.01S-1.062 59.704 6.01 48.59"/><path clip-path="url(#SVGID_4_)" fill="#3B68B1" d="M64.15 66.37c.226-1.93-1.988-4.304-4.02-4.542-2.033-.238-3.863 1.134-4.09 3.064-.227 1.93 1.174 4.314 3.206 4.553 2.032.238 4.677-1.145 4.903-3.075M100.028 67.915c.227-1.93-1.398-4.618-3.43-4.855-2.032-.24-4.717 1.753-4.943 3.683-.227 1.93 1.604 4.348 3.635 4.586 2.034.238 4.512-1.485 4.738-3.415"/><path clip-path="url(#SVGID_4_)" fill="#231F20" d="M28.185 129.93l46.794 6.82 47.315-10.862 12.548-12.125-59.864 17.935-60.128-15.66s4.968 7.83 13.333 13.892"/><path clip-path="url(#SVGID_4_)" fill="#FFF100" d="M81.49 132.96c0 3.35-2.803 6.064-6.264 6.064-3.46 0-6.264-2.714-6.264-6.063 0-3.347 2.804-6.062 6.264-6.062 3.46 0 6.265 2.714 6.265 6.063"/><ellipse clip-path="url(#SVGID_4_)" stroke="#231F20" stroke-width="2" stroke-miterlimit="10" cx="75.226" cy="132.961" rx="6.265" ry="6.063" fill="none"/></svg>